<svg width="210" height="94" viewBox="0 0 210 94" fill="none" xmlns="http://www.w3.org/2000/svg">
<path fill-rule="evenodd" clip-rule="evenodd" d="M0 29.2543V43.8458H42.6822C47.6433 43.8458 53.9816 39.2585 53.9816 31.6697C53.9816 28.6176 55.149 26.6267 51.5616 22.5895L46.1022 16.1208C42.974 13.2025 46.476 13.2025 49.1036 13.2025H67.1244V43.8458H81.416V13.2025H100.678V0.0794067H38.3047C30.716 0.0794067 27.0052 7.36593 27.214 11.1597C27.424 14.9535 28.1218 19.7266 34.4279 25.4606C40.1803 30.6893 31.5799 29.2543 30.716 29.2543H0ZM132.28 0.0794067H109.224L96.2993 43.847H110.683L113.017 37.7186H128.192L130.445 43.847H144.534L132.28 0.0794067ZM116.228 27.2115L121.189 11.1597L125.859 27.2115H116.228ZM190.063 29.2543C184.518 29.2543 184.518 27.2115 184.518 27.2115C189.27 27.2115 193.482 20.2895 193.482 13.2025C193.482 6.11556 186.561 0.0794067 181.014 0.0794067H149.996V43.847H165.757V29.2555C165.757 29.2555 172.468 37.1349 175.97 40.345C179.473 43.5552 179.764 43.847 184.517 43.847H209.258V29.2555C209.261 29.2543 195.608 29.2543 190.063 29.2543ZM175.762 19.0403H165.759V11.1597H175.762C180.349 11.1597 181.142 19.0403 175.762 19.0403ZM0 49.3906H16.1245L20.2101 63.9844L24.0039 49.3906H40.9312L45.3086 63.9844L49.6872 49.3906H63.6951L50.8534 93.1686H38.0129L32.3862 72.4464L26.0467 93.1686H12.9143L0 49.3906ZM96.7872 49.6432H73.7315L60.8079 93.4097H75.1907L77.5253 87.2824H92.7016L94.9544 93.4097H109.045L96.7872 49.6432ZM80.7366 76.7742L85.6977 60.7224L90.367 76.7742H80.7366ZM190.354 62.5253C187.73 62.5253 184.868 62.8321 187.997 65.7492L193.458 72.2191C197.044 76.2563 196.986 77.9392 196.986 80.9936C196.986 88.5812 189.48 93.1686 184.518 93.1686L150.034 93.4005C145.283 93.4005 144.992 93.1098 141.489 89.8996C137.988 86.6895 131.275 78.8089 131.275 78.8089V93.4005H115.516V49.634H146.534C152.079 49.634 159.002 55.6713 159.002 62.7571C159.002 69.8453 154.79 76.7661 150.036 76.7661C150.036 76.7661 152.126 78.8678 155.628 78.8678C159.132 78.8678 172.616 78.8816 172.616 78.8816C173.479 78.8816 182.078 80.3165 176.326 75.0878C170.02 69.3539 169.323 64.5831 169.113 60.7893C168.903 56.9955 172.183 49.3918 179.768 49.3918H209.263V62.5264L190.354 62.5253ZM141.279 68.5937H131.274V60.7132H141.279C145.867 60.7132 146.659 68.5937 141.279 68.5937Z" fill="white"/>
</svg>
